<svg width="36" height="36" viewBox="0 0 36 36" fill="none" xmlns="http://www.w3.org/2000/svg">
<rect x="0.5" y="0.5" width="34.2564" height="34.2564" rx="17.1282" stroke="white" stroke-opacity="0.52"/>
<path d="M16.9697 8C20.7675 8 22.6664 8.0002 24.0342 8.94629C24.645 9.36882 25.1681 9.9161 25.5723 10.5547C26.4772 11.9847 26.4775 13.9699 26.4775 17.9404C26.4775 21.9113 26.4773 23.8971 25.5723 25.3271C25.1681 25.9656 24.6449 26.5121 24.0342 26.9346C22.6664 27.8807 20.7676 27.8809 16.9697 27.8809C13.1715 27.8809 11.2722 27.8808 9.9043 26.9346C9.29358 26.5121 8.77034 25.9656 8.36621 25.3271C7.46113 23.8971 7.46094 21.9113 7.46094 17.9404C7.46094 13.9699 7.4613 11.9847 8.36621 10.5547C8.77037 9.9161 9.29348 9.36882 9.9043 8.94629C11.2722 8.00014 13.1716 8 16.9697 8ZM16.9697 12.7969C14.2511 12.7969 12.0469 15.1011 12.0469 17.9434C12.047 20.7855 14.2511 23.0898 16.9697 23.0898C19.6882 23.0897 21.8915 20.7854 21.8916 17.9434C21.8916 15.1012 19.6883 12.797 16.9697 12.7969ZM16.9697 14.5381C18.7685 14.5382 20.2266 16.0628 20.2266 17.9434C20.2265 19.8238 18.7684 21.3485 16.9697 21.3486C15.1709 21.3486 13.712 19.8239 13.7119 17.9434C13.7119 16.0627 15.1709 14.5381 16.9697 14.5381ZM22.0859 11.3281C21.4474 11.3284 20.9298 11.8695 20.9297 12.5371C20.9297 13.2048 21.4474 13.7458 22.0859 13.7461C22.7247 13.7461 23.2432 13.205 23.2432 12.5371C23.2431 11.8693 22.7247 11.3281 22.0859 11.3281Z" fill="white"/>
</svg>
